<?xml version="1.0" encoding="UTF-8" standalone="no"?><svg xmlns="http://www.w3.org/2000/svg" xmlns:xlink="http://www.w3.org/1999/xlink" contentScriptType="application/ecmascript" contentStyleType="text/css" height="597px" preserveAspectRatio="none" style="width:396px;height:597px;" version="1.1" viewBox="0 0 396 597" width="396px" zoomAndPan="magnify"><defs><filter height="300%" id="f5yor52vbfjw9" width="300%" x="-1" y="-1"><feGaussianBlur result="blurOut" stdDeviation="2.0"/><feColorMatrix in="blurOut" result="blurOut2" type="matrix" values="0 0 0 0 0 0 0 0 0 0 0 0 0 0 0 0 0 0 .4 0"/><feOffset dx="4.0" dy="4.0" in="blurOut2" result="blurOut3"/><feBlend in="SourceGraphic" in2="blurOut3" mode="normal"/></filter></defs><g><text fill="#000000" font-family="sans-serif" font-size="18" lengthAdjust="spacingAndGlyphs" textLength="96" x="141.25" y="16.708">Dictionary</text><!--MD5=[07513b2cfa2016c46090541be20532fe]
class Word--><rect codeLine="4" fill="#FEFECE" filter="url(#f5yor52vbfjw9)" height="124.8281" id="Word" style="stroke: #A80036; stroke-width: 1.5;" width="130" x="16.5" y="453.9531"/><ellipse cx="60.75" cy="469.9531" fill="#ADD1B2" rx="11" ry="11" style="stroke: #A80036; stroke-width: 1.0;"/><path d="M63.0938,465.625 C62.1563,465.1875 61.5625,465.0469 60.6875,465.0469 C58.0625,465.0469 56.0625,467.125 56.0625,469.8438 L56.0625,470.9688 C56.0625,473.5469 58.1719,475.4375 61.0625,475.4375 C62.2813,475.4375 63.4375,475.1406 64.1875,474.5938 C64.7656,474.1875 65.0938,473.7344 65.0938,473.3438 C65.0938,472.8906 64.7031,472.5 64.2344,472.5 C64.0156,472.5 63.8125,472.5781 63.625,472.7656 C63.1719,473.25 63.1719,473.25 62.9844,473.3438 C62.5625,473.6094 61.875,473.7344 61.1094,473.7344 C59.0625,473.7344 57.7656,472.6406 57.7656,470.9375 L57.7656,469.8438 C57.7656,468.0625 59.0156,466.75 60.75,466.75 C61.3281,466.75 61.9375,466.9063 62.4063,467.1563 C62.8906,467.4375 63.0625,467.6563 63.1563,468.0625 C63.2188,468.4688 63.25,468.5938 63.3906,468.7188 C63.5313,468.8594 63.7656,468.9688 63.9844,468.9688 C64.25,468.9688 64.5156,468.8281 64.6875,468.6094 C64.7969,468.4531 64.8281,468.2656 64.8281,467.8438 L64.8281,466.4219 C64.8281,465.9844 64.8125,465.8594 64.7188,465.7031 C64.5625,465.4375 64.2813,465.2969 63.9844,465.2969 C63.6875,465.2969 63.4844,465.3906 63.2656,465.7031 L63.0938,465.625 Z "/><text fill="#000000" font-family="sans-serif" font-size="12" lengthAdjust="spacingAndGlyphs" textLength="33" x="81.25" y="474.1074">Word</text><line style="stroke: #A80036; stroke-width: 1.5;" x1="17.5" x2="145.5" y1="485.9531" y2="485.9531"/><ellipse cx="27.5" cy="496.9531" fill="none" rx="3" ry="3" style="stroke: #038048; stroke-width: 1.0;"/><text fill="#000000" font-family="sans-serif" font-size="11" lengthAdjust="spacingAndGlyphs" textLength="68" x="36.5" y="500.1636">string name</text><ellipse cx="27.5" cy="509.7578" fill="none" rx="3" ry="3" style="stroke: #038048; stroke-width: 1.0;"/><text fill="#000000" font-family="sans-serif" font-size="11" lengthAdjust="spacingAndGlyphs" textLength="94" x="36.5" y="512.9683">string translation</text><ellipse cx="27.5" cy="522.5625" fill="none" rx="3" ry="3" style="stroke: #038048; stroke-width: 1.0;"/><text fill="#000000" font-family="sans-serif" font-size="11" lengthAdjust="spacingAndGlyphs" textLength="104" x="36.5" y="525.7729">string transcription</text><ellipse cx="27.5" cy="535.3672" fill="none" rx="3" ry="3" style="stroke: #038048; stroke-width: 1.0;"/><text fill="#000000" font-family="sans-serif" font-size="11" lengthAdjust="spacingAndGlyphs" textLength="97" x="36.5" y="538.5776">string description</text><ellipse cx="27.5" cy="548.1719" fill="none" rx="3" ry="3" style="stroke: #038048; stroke-width: 1.0;"/><text fill="#000000" font-family="sans-serif" font-size="11" lengthAdjust="spacingAndGlyphs" textLength="71" x="36.5" y="551.3823">string image</text><ellipse cx="27.5" cy="560.9766" fill="none" rx="3" ry="3" style="stroke: #038048; stroke-width: 1.0;"/><text fill="#000000" font-family="sans-serif" font-size="11" lengthAdjust="spacingAndGlyphs" textLength="92" x="36.5" y="564.187">string examples</text><line style="stroke: #A80036; stroke-width: 1.5;" x1="17.5" x2="145.5" y1="570.7813" y2="570.7813"/><!--MD5=[ae4b05b27280a89d91abe8787725c4b8]
class LearningWord--><rect codeLine="13" fill="#FEFECE" filter="url(#f5yor52vbfjw9)" height="73.6094" id="LearningWord" style="stroke: #A80036; stroke-width: 1.5;" width="116" x="23.5" y="319.9531"/><ellipse cx="38.5" cy="335.9531" fill="#ADD1B2" rx="11" ry="11" style="stroke: #A80036; stroke-width: 1.0;"/><path d="M40.8438,331.625 C39.9063,331.1875 39.3125,331.0469 38.4375,331.0469 C35.8125,331.0469 33.8125,333.125 33.8125,335.8438 L33.8125,336.9688 C33.8125,339.5469 35.9219,341.4375 38.8125,341.4375 C40.0313,341.4375 41.1875,341.1406 41.9375,340.5938 C42.5156,340.1875 42.8438,339.7344 42.8438,339.3438 C42.8438,338.8906 42.4531,338.5 41.9844,338.5 C41.7656,338.5 41.5625,338.5781 41.375,338.7656 C40.9219,339.25 40.9219,339.25 40.7344,339.3438 C40.3125,339.6094 39.625,339.7344 38.8594,339.7344 C36.8125,339.7344 35.5156,338.6406 35.5156,336.9375 L35.5156,335.8438 C35.5156,334.0625 36.7656,332.75 38.5,332.75 C39.0781,332.75 39.6875,332.9063 40.1563,333.1563 C40.6406,333.4375 40.8125,333.6563 40.9063,334.0625 C40.9688,334.4688 41,334.5938 41.1406,334.7188 C41.2813,334.8594 41.5156,334.9688 41.7344,334.9688 C42,334.9688 42.2656,334.8281 42.4375,334.6094 C42.5469,334.4531 42.5781,334.2656 42.5781,333.8438 L42.5781,332.4219 C42.5781,331.9844 42.5625,331.8594 42.4688,331.7031 C42.3125,331.4375 42.0313,331.2969 41.7344,331.2969 C41.4375,331.2969 41.2344,331.3906 41.0156,331.7031 L40.8438,331.625 Z "/><text fill="#000000" font-family="sans-serif" font-size="12" lengthAdjust="spacingAndGlyphs" textLength="84" x="52.5" y="340.1074">LearningWord</text><line style="stroke: #A80036; stroke-width: 1.5;" x1="24.5" x2="138.5" y1="351.9531" y2="351.9531"/><ellipse cx="34.5" cy="362.9531" fill="none" rx="3" ry="3" style="stroke: #038048; stroke-width: 1.0;"/><text fill="#000000" font-family="sans-serif" font-size="11" lengthAdjust="spacingAndGlyphs" textLength="60" x="43.5" y="366.1636">Word word</text><ellipse cx="34.5" cy="375.7578" fill="none" rx="3" ry="3" style="stroke: #038048; stroke-width: 1.0;"/><text fill="#000000" font-family="sans-serif" font-size="11" lengthAdjust="spacingAndGlyphs" textLength="67" x="43.5" y="378.9683">int progress</text><line style="stroke: #A80036; stroke-width: 1.5;" x1="24.5" x2="138.5" y1="385.5625" y2="385.5625"/><!--MD5=[41314a0efc36828092cff9ebad2fcafd]
class Group--><rect codeLine="18" fill="#FEFECE" filter="url(#f5yor52vbfjw9)" height="86.4141" id="Group" style="stroke: #A80036; stroke-width: 1.5;" width="149" x="7" y="173.9531"/><ellipse cx="58.75" cy="189.9531" fill="#ADD1B2" rx="11" ry="11" style="stroke: #A80036; stroke-width: 1.0;"/><path d="M61.0938,185.625 C60.1563,185.1875 59.5625,185.0469 58.6875,185.0469 C56.0625,185.0469 54.0625,187.125 54.0625,189.8438 L54.0625,190.9688 C54.0625,193.5469 56.1719,195.4375 59.0625,195.4375 C60.2813,195.4375 61.4375,195.1406 62.1875,194.5938 C62.7656,194.1875 63.0938,193.7344 63.0938,193.3438 C63.0938,192.8906 62.7031,192.5 62.2344,192.5 C62.0156,192.5 61.8125,192.5781 61.625,192.7656 C61.1719,193.25 61.1719,193.25 60.9844,193.3438 C60.5625,193.6094 59.875,193.7344 59.1094,193.7344 C57.0625,193.7344 55.7656,192.6406 55.7656,190.9375 L55.7656,189.8438 C55.7656,188.0625 57.0156,186.75 58.75,186.75 C59.3281,186.75 59.9375,186.9063 60.4063,187.1563 C60.8906,187.4375 61.0625,187.6563 61.1563,188.0625 C61.2188,188.4688 61.25,188.5938 61.3906,188.7188 C61.5313,188.8594 61.7656,188.9688 61.9844,188.9688 C62.25,188.9688 62.5156,188.8281 62.6875,188.6094 C62.7969,188.4531 62.8281,188.2656 62.8281,187.8438 L62.8281,186.4219 C62.8281,185.9844 62.8125,185.8594 62.7188,185.7031 C62.5625,185.4375 62.2813,185.2969 61.9844,185.2969 C61.6875,185.2969 61.4844,185.3906 61.2656,185.7031 L61.0938,185.625 Z "/><text fill="#000000" font-family="sans-serif" font-size="12" lengthAdjust="spacingAndGlyphs" textLength="37" x="79.25" y="194.1074">Group</text><line style="stroke: #A80036; stroke-width: 1.5;" x1="8" x2="155" y1="205.9531" y2="205.9531"/><ellipse cx="18" cy="216.9531" fill="none" rx="3" ry="3" style="stroke: #038048; stroke-width: 1.0;"/><text fill="#000000" font-family="sans-serif" font-size="11" lengthAdjust="spacingAndGlyphs" textLength="123" x="27" y="220.1636">LearningWord[] words</text><ellipse cx="18" cy="229.7578" fill="none" rx="3" ry="3" style="stroke: #038048; stroke-width: 1.0;"/><text fill="#000000" font-family="sans-serif" font-size="11" lengthAdjust="spacingAndGlyphs" textLength="68" x="27" y="232.9683">string name</text><line style="stroke: #A80036; stroke-width: 1.5;" x1="8" x2="155" y1="239.5625" y2="239.5625"/><ellipse cx="18" cy="250.5625" fill="#84BE84" rx="3" ry="3" style="stroke: #038048; stroke-width: 1.0;"/><text fill="#000000" font-family="sans-serif" font-size="11" lengthAdjust="spacingAndGlyphs" textLength="75" x="27" y="253.7729">int progress()</text><!--MD5=[3fd616f346a44cd59a91eb10b19e157c]
class User--><rect codeLine="24" fill="#FEFECE" filter="url(#f5yor52vbfjw9)" height="60.8047" id="User" style="stroke: #A80036; stroke-width: 1.5;" width="110" x="26.5" y="40.4531"/><ellipse cx="63.55" cy="56.4531" fill="#ADD1B2" rx="11" ry="11" style="stroke: #A80036; stroke-width: 1.0;"/><path d="M65.8938,52.125 C64.9563,51.6875 64.3625,51.5469 63.4875,51.5469 C60.8625,51.5469 58.8625,53.625 58.8625,56.3438 L58.8625,57.4688 C58.8625,60.0469 60.9719,61.9375 63.8625,61.9375 C65.0813,61.9375 66.2375,61.6406 66.9875,61.0938 C67.5656,60.6875 67.8938,60.2344 67.8938,59.8438 C67.8938,59.3906 67.5031,59 67.0344,59 C66.8156,59 66.6125,59.0781 66.425,59.2656 C65.9719,59.75 65.9719,59.75 65.7844,59.8438 C65.3625,60.1094 64.675,60.2344 63.9094,60.2344 C61.8625,60.2344 60.5656,59.1406 60.5656,57.4375 L60.5656,56.3438 C60.5656,54.5625 61.8156,53.25 63.55,53.25 C64.1281,53.25 64.7375,53.4063 65.2063,53.6563 C65.6906,53.9375 65.8625,54.1563 65.9563,54.5625 C66.0188,54.9688 66.05,55.0938 66.1906,55.2188 C66.3313,55.3594 66.5656,55.4688 66.7844,55.4688 C67.05,55.4688 67.3156,55.3281 67.4875,55.1094 C67.5969,54.9531 67.6281,54.7656 67.6281,54.3438 L67.6281,52.9219 C67.6281,52.4844 67.6125,52.3594 67.5188,52.2031 C67.3625,51.9375 67.0813,51.7969 66.7844,51.7969 C66.4875,51.7969 66.2844,51.8906 66.0656,52.2031 L65.8938,52.125 Z "/><text fill="#000000" font-family="sans-serif" font-size="12" lengthAdjust="spacingAndGlyphs" textLength="29" x="82.45" y="60.6074">User</text><line style="stroke: #A80036; stroke-width: 1.5;" x1="27.5" x2="135.5" y1="72.4531" y2="72.4531"/><ellipse cx="37.5" cy="83.4531" fill="none" rx="3" ry="3" style="stroke: #038048; stroke-width: 1.0;"/><text fill="#000000" font-family="sans-serif" font-size="11" lengthAdjust="spacingAndGlyphs" textLength="84" x="46.5" y="86.6636">Group[] groups</text><line style="stroke: #A80036; stroke-width: 1.5;" x1="27.5" x2="135.5" y1="93.2578" y2="93.2578"/><!--MD5=[ad7ca1b0a174a23ed2978b6ef95e68c6]
class Exercise--><rect codeLine="28" fill="#FEFECE" filter="url(#f5yor52vbfjw9)" height="86.4141" id="Exercise" style="stroke: #A80036; stroke-width: 1.5;" width="206" x="171.5" y="27.9531"/><ellipse cx="245.25" cy="43.9531" fill="#A9DCDF" rx="11" ry="11" style="stroke: #A80036; stroke-width: 1.0;"/><path d="M247.3281,45.7656 L247.7188,46.75 L247.3281,46.75 C246.875,46.75 246.7656,46.7656 246.6094,46.875 C246.3594,47.0313 246.2031,47.3125 246.2031,47.6094 C246.2031,47.875 246.3438,48.125 246.5625,48.2813 C246.7031,48.4063 246.9063,48.4531 247.3281,48.4531 L249.6875,48.4531 C250.0469,48.4531 250.2656,48.4219 250.4063,48.3281 C250.6563,48.1875 250.8125,47.8906 250.8125,47.6094 C250.8125,47.3281 250.6719,47.0781 250.4531,46.9219 C250.2813,46.7813 250.125,46.75 249.6563,46.75 L246.2656,38.5469 L242.5938,38.5469 C242.1406,38.5469 242.0156,38.5625 241.8594,38.6563 C241.6094,38.8281 241.4531,39.1094 241.4531,39.3906 C241.4531,39.6719 241.5938,39.9219 241.8125,40.0938 C241.9844,40.2031 242.1563,40.2344 242.5938,40.2344 L243.6719,40.2344 L241.0313,46.75 C240.6094,46.75 240.4531,46.7656 240.2969,46.875 C240.0469,47.0313 239.8906,47.3125 239.8906,47.6094 C239.8906,48.1719 240.2656,48.4531 241.0156,48.4531 L243.2813,48.4531 C243.6406,48.4531 243.8594,48.4219 243.9844,48.3281 C244.25,48.1875 244.3906,47.8906 244.3906,47.6094 C244.3906,47.3281 244.2656,47.0781 244.0469,46.9063 C243.875,46.7813 243.7344,46.75 243.2813,46.75 L242.8906,46.75 L243.2813,45.7656 L247.3281,45.7656 Z M246.625,44.0625 L243.9531,44.0625 L245.2969,40.7969 L246.625,44.0625 Z "/><text fill="#000000" font-family="sans-serif" font-size="12" font-style="italic" lengthAdjust="spacingAndGlyphs" textLength="50" x="265.75" y="48.1074">Exercise</text><line style="stroke: #A80036; stroke-width: 1.5;" x1="172.5" x2="376.5" y1="59.9531" y2="59.9531"/><rect fill="none" height="6" style="stroke: #C82930; stroke-width: 1.0;" width="6" x="179.5" y="67.9531"/><text fill="#000000" font-family="sans-serif" font-size="11" lengthAdjust="spacingAndGlyphs" textLength="60" x="191.5" y="74.1636">Word word</text><line style="stroke: #A80036; stroke-width: 1.5;" x1="172.5" x2="376.5" y1="80.7578" y2="80.7578"/><ellipse cx="182.5" cy="91.7578" fill="#84BE84" rx="3" ry="3" style="stroke: #038048; stroke-width: 1.0;"/><text fill="#000000" font-family="sans-serif" font-size="11" lengthAdjust="spacingAndGlyphs" textLength="55" x="191.5" y="94.9683">void ask()</text><ellipse cx="182.5" cy="104.5625" fill="#84BE84" rx="3" ry="3" style="stroke: #038048; stroke-width: 1.0;"/><text fill="#000000" font-family="sans-serif" font-size="11" lengthAdjust="spacingAndGlyphs" textLength="180" x="191.5" y="107.7729">bool checkResult(string answer)</text><!--MD5=[c261b23ae3849f38fa22d056a6552f1c]
class TranslationExercise--><rect codeLine="34" fill="#FEFECE" filter="url(#f5yor52vbfjw9)" height="48" id="TranslationExercise" style="stroke: #A80036; stroke-width: 1.5;" width="149" x="200" y="192.9531"/><ellipse cx="215" cy="208.9531" fill="#ADD1B2" rx="11" ry="11" style="stroke: #A80036; stroke-width: 1.0;"/><path d="M217.3438,204.625 C216.4063,204.1875 215.8125,204.0469 214.9375,204.0469 C212.3125,204.0469 210.3125,206.125 210.3125,208.8438 L210.3125,209.9688 C210.3125,212.5469 212.4219,214.4375 215.3125,214.4375 C216.5313,214.4375 217.6875,214.1406 218.4375,213.5938 C219.0156,213.1875 219.3438,212.7344 219.3438,212.3438 C219.3438,211.8906 218.9531,211.5 218.4844,211.5 C218.2656,211.5 218.0625,211.5781 217.875,211.7656 C217.4219,212.25 217.4219,212.25 217.2344,212.3438 C216.8125,212.6094 216.125,212.7344 215.3594,212.7344 C213.3125,212.7344 212.0156,211.6406 212.0156,209.9375 L212.0156,208.8438 C212.0156,207.0625 213.2656,205.75 215,205.75 C215.5781,205.75 216.1875,205.9063 216.6563,206.1563 C217.1406,206.4375 217.3125,206.6563 217.4063,207.0625 C217.4688,207.4688 217.5,207.5938 217.6406,207.7188 C217.7813,207.8594 218.0156,207.9688 218.2344,207.9688 C218.5,207.9688 218.7656,207.8281 218.9375,207.6094 C219.0469,207.4531 219.0781,207.2656 219.0781,206.8438 L219.0781,205.4219 C219.0781,204.9844 219.0625,204.8594 218.9688,204.7031 C218.8125,204.4375 218.5313,204.2969 218.2344,204.2969 C217.9375,204.2969 217.7344,204.3906 217.5156,204.7031 L217.3438,204.625 Z "/><text fill="#000000" font-family="sans-serif" font-size="12" lengthAdjust="spacingAndGlyphs" textLength="117" x="229" y="213.1074">TranslationExercise</text><line style="stroke: #A80036; stroke-width: 1.5;" x1="201" x2="348" y1="224.9531" y2="224.9531"/><line style="stroke: #A80036; stroke-width: 1.5;" x1="201" x2="348" y1="232.9531" y2="232.9531"/><!--MD5=[24be8fd020aa88543967b111aaa4fac8]
reverse link User to Group--><path codeLine="36" d="M81.5,115.0161 C81.5,133.6371 81.5,155.3571 81.5,173.8681 " fill="none" id="User-backto-Group" style="stroke: #A80036; stroke-width: 1.0;"/><polygon fill="#A80036" points="81.5,101.7901,77.5,107.7901,81.5,113.7901,85.5,107.7901,81.5,101.7901" style="stroke: #A80036; stroke-width: 1.0;"/><!--MD5=[3aaa3c69d051b47262eaaafc043499ff]
reverse link Group to LearningWord--><path codeLine="37" d="M81.5,273.4501 C81.5,289.0081 81.5,305.5191 81.5,319.6501 " fill="none" id="Group-backto-LearningWord" style="stroke: #A80036; stroke-width: 1.0;"/><polygon fill="#FFFFFF" points="81.5,260.1071,77.5,266.1071,81.5,272.1071,85.5,266.1071,81.5,260.1071" style="stroke: #A80036; stroke-width: 1.0;"/><!--MD5=[c49b9bbc7bfbb6fb10954021a7abbe35]
reverse link LearningWord to Word--><path codeLine="38" d="M81.5,407.1441 C81.5,421.9391 81.5,438.3641 81.5,453.8571 " fill="none" id="LearningWord-backto-Word" style="stroke: #A80036; stroke-width: 1.0;"/><polygon fill="#FFFFFF" points="81.5,394.0871,77.5,400.0871,81.5,406.0871,85.5,400.0871,81.5,394.0871" style="stroke: #A80036; stroke-width: 1.0;"/><!--MD5=[1695de7e574ef84314bf8bbc6d14fbbe]
reverse link Exercise to TranslationExercise--><path codeLine="39" d="M274.5,134.1921 C274.5,155.0291 274.5,176.9771 274.5,192.8811 " fill="none" id="Exercise-backto-TranslationExercise" style="stroke: #A80036; stroke-width: 1.0;"/><polygon fill="none" points="267.5,133.9911,274.5,113.9911,281.5,133.9911,267.5,133.9911" style="stroke: #A80036; stroke-width: 1.0;"/><!--MD5=[62ef94c4c36ff46b1f57e71598b237f1]
@startuml
title Dictionary


class Word {
  +string name
  +string translation
  +string transcription
  +string description
  +string image
  +string examples
}

class LearningWord {
  +Word word
  +int progress
}

class Group {
  +LearningWord[] words
  +string name
  +int progress()
}

class User {
  +Group[] groups
}

abstract class Exercise {
  -Word word
  +void ask()
  +bool checkResult(string answer)
}

class TranslationExercise {}

User *- - Group
Group o- - LearningWord
LearningWord o- - Word
Exercise <|- - TranslationExercise
@enduml

PlantUML version 1.2020.17beta5(Unknown compile time)
(GPL source distribution)
Java Runtime: Java(TM) SE Runtime Environment
JVM: Java HotSpot(TM) 64-Bit Server VM
Default Encoding: UTF-8
Language: en
Country: US
--></g></svg>